<svg width="280" height="41" viewBox="0 0 280 41" fill="none" xmlns="http://www.w3.org/2000/svg">
<path d="M17.488 40L11.104 27.808H11.056V40H0.4V6.016H16.24C18.992 6.016 21.344 6.512 23.296 7.504C25.248 8.464 26.704 9.792 27.664 11.488C28.656 13.152 29.152 15.04 29.152 17.152C29.152 19.424 28.512 21.44 27.232 23.2C25.984 24.96 24.176 26.224 21.808 26.992L29.2 40H17.488ZM11.056 20.704H15.28C16.304 20.704 17.072 20.48 17.584 20.032C18.096 19.552 18.352 18.816 18.352 17.824C18.352 16.928 18.08 16.224 17.536 15.712C17.024 15.2 16.272 14.944 15.28 14.944H11.056V20.704ZM58.7643 26.224C58.7643 26.96 58.7163 27.664 58.6203 28.336H41.4843C41.6443 30.672 42.6203 31.84 44.4123 31.84C45.5643 31.84 46.3963 31.312 46.9083 30.256H58.1883C57.8043 32.176 56.9883 33.904 55.7403 35.44C54.5243 36.944 52.9723 38.144 51.0843 39.04C49.2283 39.904 47.1803 40.336 44.9403 40.336C42.2523 40.336 39.8523 39.776 37.7403 38.656C35.6603 37.536 34.0283 35.936 32.8443 33.856C31.6923 31.744 31.1163 29.28 31.1163 26.464C31.1163 23.648 31.6923 21.2 32.8443 19.12C34.0283 17.008 35.6603 15.392 37.7403 14.272C39.8523 13.152 42.2523 12.592 44.9403 12.592C47.6283 12.592 50.0123 13.152 52.0923 14.272C54.2043 15.36 55.8363 16.928 56.9883 18.976C58.1723 21.024 58.7643 23.44 58.7643 26.224ZM47.9643 23.68C47.9643 22.784 47.6763 22.112 47.1003 21.664C46.5243 21.184 45.8043 20.944 44.9403 20.944C43.0523 20.944 41.9483 21.856 41.6283 23.68H47.9643ZM81.0944 12.736C84.1984 12.736 86.6144 13.776 88.3424 15.856C90.1024 17.936 90.9824 20.752 90.9824 24.304V40H80.3744V25.648C80.3744 24.368 80.0224 23.36 79.3184 22.624C78.6464 21.856 77.7344 21.472 76.5824 21.472C75.3984 21.472 74.4704 21.856 73.7984 22.624C73.1264 23.36 72.7904 24.368 72.7904 25.648V40H62.1344V12.928H72.7904V17.056C73.6224 15.776 74.7264 14.736 76.1024 13.936C77.5104 13.136 79.1744 12.736 81.0944 12.736ZM112.451 30.928V40H108.419C100.995 40 97.2831 36.304 97.2831 28.912V21.808H93.9231V12.928H97.2831V6.4H107.939V12.928H112.355V21.808H107.939V29.104C107.939 29.744 108.083 30.208 108.371 30.496C108.691 30.784 109.203 30.928 109.907 30.928H112.451ZM150.442 40L148.09 37.792C145.082 39.584 141.546 40.48 137.482 40.48C134.73 40.48 132.33 40.048 130.282 39.184C128.266 38.32 126.714 37.104 125.626 35.536C124.538 33.936 123.994 32.112 123.994 30.064C123.994 28.112 124.49 26.336 125.482 24.736C126.506 23.104 128.026 21.728 130.042 20.608C128.57 18.784 127.834 16.864 127.834 14.848C127.834 13.12 128.282 11.536 129.178 10.096C130.106 8.656 131.45 7.52 133.21 6.688C134.97 5.824 137.066 5.392 139.498 5.392C141.962 5.392 144.058 5.84 145.786 6.736C147.514 7.6 148.81 8.752 149.674 10.192C150.538 11.632 150.97 13.184 150.97 14.848H141.274C141.274 14.24 141.098 13.792 140.746 13.504C140.394 13.184 139.978 13.024 139.498 13.024C138.986 13.024 138.538 13.184 138.154 13.504C137.802 13.792 137.626 14.208 137.626 14.752C137.626 15.776 138.33 16.96 139.738 18.304L147.466 25.792C147.914 24.928 148.314 23.952 148.666 22.864L148.81 22.432H159.13L158.65 23.68C157.434 26.88 155.93 29.728 154.138 32.224L162.154 40H150.442ZM138.25 32.08C139.402 32.08 140.474 31.904 141.466 31.552L135.802 26.272C135.258 26.656 134.842 27.104 134.554 27.616C134.298 28.096 134.17 28.592 134.17 29.104C134.17 29.936 134.522 30.64 135.226 31.216C135.962 31.792 136.97 32.08 138.25 32.08ZM189.801 40L183.417 27.808H183.369V40H172.713V6.016H188.553C191.305 6.016 193.657 6.512 195.609 7.504C197.561 8.464 199.017 9.792 199.977 11.488C200.969 13.152 201.465 15.04 201.465 17.152C201.465 19.424 200.825 21.44 199.545 23.2C198.297 24.96 196.489 26.224 194.121 26.992L201.513 40H189.801ZM183.369 20.704H187.593C188.617 20.704 189.385 20.48 189.897 20.032C190.409 19.552 190.665 18.816 190.665 17.824C190.665 16.928 190.393 16.224 189.849 15.712C189.337 15.2 188.585 14.944 187.593 14.944H183.369V20.704ZM210.245 10.768C208.389 10.768 206.901 10.272 205.781 9.28C204.661 8.288 204.101 7.04 204.101 5.536C204.101 4 204.661 2.736 205.781 1.744C206.901 0.719997 208.389 0.207997 210.245 0.207997C212.069 0.207997 213.541 0.719997 214.661 1.744C215.781 2.736 216.341 4 216.341 5.536C216.341 7.04 215.781 8.288 214.661 9.28C213.541 10.272 212.069 10.768 210.245 10.768ZM215.525 12.928V40H204.869V12.928H215.525ZM218.898 26.464C218.898 23.616 219.378 21.152 220.338 19.072C221.33 16.96 222.674 15.36 224.37 14.272C226.066 13.152 227.97 12.592 230.082 12.592C231.842 12.592 233.346 12.96 234.594 13.696C235.874 14.4 236.85 15.376 237.522 16.624V4.48H248.178V40H237.522V36.304C236.85 37.552 235.874 38.544 234.594 39.28C233.346 39.984 231.842 40.336 230.082 40.336C227.97 40.336 226.066 39.792 224.37 38.704C222.674 37.584 221.33 35.984 220.338 33.904C219.378 31.792 218.898 29.312 218.898 26.464ZM237.57 26.464C237.57 25.024 237.202 23.904 236.466 23.104C235.73 22.304 234.786 21.904 233.634 21.904C232.482 21.904 231.538 22.304 230.802 23.104C230.066 23.904 229.698 25.024 229.698 26.464C229.698 27.904 230.066 29.024 230.802 29.824C231.538 30.624 232.482 31.024 233.634 31.024C234.786 31.024 235.73 30.624 236.466 29.824C237.202 29.024 237.57 27.904 237.57 26.464ZM279.171 26.224C279.171 26.96 279.123 27.664 279.027 28.336H261.891C262.051 30.672 263.027 31.84 264.819 31.84C265.971 31.84 266.803 31.312 267.315 30.256H278.595C278.211 32.176 277.395 33.904 276.147 35.44C274.931 36.944 273.379 38.144 271.491 39.04C269.635 39.904 267.587 40.336 265.347 40.336C262.659 40.336 260.259 39.776 258.147 38.656C256.067 37.536 254.435 35.936 253.251 33.856C252.099 31.744 251.523 29.28 251.523 26.464C251.523 23.648 252.099 21.2 253.251 19.12C254.435 17.008 256.067 15.392 258.147 14.272C260.259 13.152 262.659 12.592 265.347 12.592C268.035 12.592 270.419 13.152 272.499 14.272C274.611 15.36 276.243 16.928 277.395 18.976C278.579 21.024 279.171 23.44 279.171 26.224ZM268.371 23.68C268.371 22.784 268.083 22.112 267.507 21.664C266.931 21.184 266.211 20.944 265.347 20.944C263.459 20.944 262.355 21.856 262.035 23.68H268.371Z" fill="white"/>
</svg>
